<svg width="40" height="40" viewBox="0 0 40 40" fill="none" xmlns="http://www.w3.org/2000/svg">
<path d="M9.24992 29.375C10.9999 28.1528 12.736 27.2153 14.4583 26.5625C16.1805 25.9097 18.0277 25.5833 19.9999 25.5833C21.9721 25.5833 23.8263 25.9097 25.5624 26.5625C27.2985 27.2153 29.0416 28.1528 30.7916 29.375C32.0138 27.875 32.8819 26.3611 33.3958 24.8333C33.9096 23.3056 34.1666 21.6945 34.1666 20C34.1666 15.9722 32.8124 12.6042 30.1041 9.89584C27.3958 7.18751 24.0277 5.83334 19.9999 5.83334C15.9721 5.83334 12.6041 7.18751 9.89575 9.89584C7.18742 12.6042 5.83325 15.9722 5.83325 20C5.83325 21.6945 6.09714 23.3056 6.62492 24.8333C7.1527 26.3611 8.0277 27.875 9.24992 29.375ZM19.9999 21.25C18.3888 21.25 17.0346 20.7014 15.9374 19.6042C14.8402 18.507 14.2916 17.1528 14.2916 15.5417C14.2916 13.9306 14.8402 12.5764 15.9374 11.4792C17.0346 10.382 18.3888 9.83334 19.9999 9.83334C21.611 9.83334 22.9652 10.382 24.0624 11.4792C25.1596 12.5764 25.7083 13.9306 25.7083 15.5417C25.7083 17.1528 25.1596 18.507 24.0624 19.6042C22.9652 20.7014 21.611 21.25 19.9999 21.25ZM19.9999 36.6667C17.7221 36.6667 15.5694 36.2292 13.5416 35.3542C11.5138 34.4792 9.74297 33.2847 8.22909 31.7708C6.7152 30.257 5.52075 28.4861 4.64575 26.4583C3.77075 24.4306 3.33325 22.2778 3.33325 20C3.33325 17.6945 3.77075 15.5347 4.64575 13.5208C5.52075 11.507 6.7152 9.74307 8.22909 8.22918C9.74297 6.71529 11.5138 5.52084 13.5416 4.64584C15.5694 3.77084 17.7221 3.33334 19.9999 3.33334C22.3055 3.33334 24.4652 3.77084 26.4791 4.64584C28.493 5.52084 30.2569 6.71529 31.7708 8.22918C33.2846 9.74307 34.4791 11.507 35.3541 13.5208C36.2291 15.5347 36.6666 17.6945 36.6666 20C36.6666 22.2778 36.2291 24.4306 35.3541 26.4583C34.4791 28.4861 33.2846 30.257 31.7708 31.7708C30.2569 33.2847 28.493 34.4792 26.4791 35.3542C24.4652 36.2292 22.3055 36.6667 19.9999 36.6667ZM19.9999 34.1667C21.5277 34.1667 23.0208 33.9445 24.4791 33.5C25.9374 33.0556 27.3749 32.2778 28.7916 31.1667C27.3749 30.1667 25.9305 29.4028 24.4583 28.875C22.986 28.3472 21.4999 28.0833 19.9999 28.0833C18.4999 28.0833 17.0138 28.3472 15.5416 28.875C14.0694 29.4028 12.6249 30.1667 11.2083 31.1667C12.6249 32.2778 14.0624 33.0556 15.5208 33.5C16.9791 33.9445 18.4721 34.1667 19.9999 34.1667ZM19.9999 18.75C20.9444 18.75 21.7152 18.4514 22.3124 17.8542C22.9096 17.257 23.2083 16.4861 23.2083 15.5417C23.2083 14.5972 22.9096 13.8264 22.3124 13.2292C21.7152 12.632 20.9444 12.3333 19.9999 12.3333C19.0555 12.3333 18.2846 12.632 17.6874 13.2292C17.0902 13.8264 16.7916 14.5972 16.7916 15.5417C16.7916 16.4861 17.0902 17.257 17.6874 17.8542C18.2846 18.4514 19.0555 18.75 19.9999 18.75Z" fill="#7E7E7E"/>
</svg>
