<svg width="1106" height="877" viewBox="0 0 1106 877" fill="none" xmlns="http://www.w3.org/2000/svg">
<line x1="2.5" y1="126.798" x2="1102.5" y2="126.798" stroke="#3C1414" stroke-opacity="0.15" stroke-width="5" stroke-linecap="round"/>
<line x1="2.5" y1="250.662" x2="1102.5" y2="250.662" stroke="#3C1414" stroke-opacity="0.15" stroke-width="5" stroke-linecap="round"/>
<line x1="2.5" y1="374.527" x2="1102.5" y2="374.527" stroke="#3C1414" stroke-opacity="0.15" stroke-width="5" stroke-linecap="round"/>
<line x1="2.5" y1="498.391" x2="1102.5" y2="498.391" stroke="#3C1414" stroke-opacity="0.15" stroke-width="5" stroke-linecap="round"/>
<line x1="2.5" y1="622.256" x2="1102.5" y2="622.256" stroke="#3C1414" stroke-opacity="0.15" stroke-width="5" stroke-linecap="round"/>
<line x1="2.5" y1="746.121" x2="1102.5" y2="746.121" stroke="#3C1414" stroke-opacity="0.15" stroke-width="5" stroke-linecap="round"/>
<line x1="91.5957" y1="2.5" x2="91.5957" y2="874.331" stroke="#3C1414" stroke-opacity="0.15" stroke-width="5" stroke-linecap="round"/>
<line x1="324.114" y1="2.5" x2="324.114" y2="874.331" stroke="#3C1414" stroke-opacity="0.15" stroke-width="5" stroke-linecap="round"/>
<line x1="556.631" y1="2.50024" x2="556.631" y2="874.331" stroke="#3C1414" stroke-opacity="0.15" stroke-width="5" stroke-linecap="round"/>
<line x1="789.149" y1="2.5" x2="789.149" y2="874.331" stroke="#3C1414" stroke-opacity="0.15" stroke-width="5" stroke-linecap="round"/>
<line x1="1021.67" y1="2.5" x2="1021.67" y2="874.331" stroke="#3C1414" stroke-opacity="0.15" stroke-width="5" stroke-linecap="round"/>
<circle cx="206.984" cy="191.773" r="40.7449" fill="#3C1414" fill-opacity="0.15"/>
<circle cx="206.985" cy="556.848" r="40.7449" fill="#3C1414" fill-opacity="0.15"/>
<circle cx="666.588" cy="682.885" r="40.7449" fill="#3C1414" fill-opacity="0.15"/>
<circle cx="900.192" cy="556.848" r="40.7449" fill="#3C1414" fill-opacity="0.15"/>
<circle cx="666.588" cy="191.773" r="40.7449" fill="#3C1414" fill-opacity="0.15"/>
</svg>
