<svg width="48" height="48" viewBox="0 0 48 48" fill="none" xmlns="http://www.w3.org/2000/svg">
<path d="M12 29C12.4667 28.7667 12.9583 28.575 13.475 28.425C13.9917 28.275 14.5 28.1667 15 28.1V16.85L9.4 19.95L6.35 14.75L15.8 9.25C16.6667 11.0167 17.8417 12.4167 19.325 13.45C20.8083 14.4833 22.3833 15 24.05 15C25.6833 15 27.2333 14.4833 28.7 13.45C30.1667 12.4167 31.3333 11.0167 32.2 9.25L41.6 14.75L38.65 19.95L33 16.85V35.3L36 32.75V21.95L39.75 24L45.7 13.65L32.55 6H30C29.5 7.5 28.7667 8.875 27.8 10.125C26.8333 11.375 25.5833 12 24.05 12C22.4833 12 21.2167 11.375 20.25 10.125C19.2833 8.875 18.5333 7.5 18 6H15.45L2.25 13.6L8.25 24L12 21.95V29ZM9.35 38.55L7.4 36.25L11.35 32.9C12.1167 32.2667 12.9667 31.7833 13.9 31.45C14.8333 31.1167 15.7833 30.95 16.75 30.95C17.7167 30.95 18.6583 31.1167 19.575 31.45C20.4917 31.7833 21.3333 32.2667 22.1 32.9L27.9 37.85C28.3667 38.25 28.8917 38.5417 29.475 38.725C30.0583 38.9083 30.6667 39 31.3 39C31.9 39 32.5 38.9083 33.1 38.725C33.7 38.5417 34.2333 38.25 34.7 37.85L38.65 34.4L40.6 36.75L36.65 40.1C35.8833 40.7333 35.0417 41.2083 34.125 41.525C33.2083 41.8417 32.2667 42 31.3 42C30.3333 42 29.3833 41.8417 28.45 41.525C27.5167 41.2083 26.6667 40.7333 25.9 40.1L20.15 35.15C19.6833 34.75 19.15 34.4583 18.55 34.275C17.95 34.0917 17.35 34 16.75 34C16.1167 34 15.5083 34.0917 14.925 34.275C14.3417 34.4583 13.8167 34.75 13.35 35.15L9.35 38.55Z" fill="#6CD11C"/>
</svg>
