<svg width="40" height="40" viewBox="0 0 40 40" fill="none" xmlns="http://www.w3.org/2000/svg">
<path d="M11.9583 36.625C11.125 36.625 10.4167 36.3333 9.83333 35.75C9.25 35.1667 8.95833 34.4583 8.95833 33.625C8.95833 32.7917 9.25 32.0833 9.83333 31.5C10.4167 30.9167 11.125 30.625 11.9583 30.625C12.7917 30.625 13.5 30.9167 14.0833 31.5C14.6667 32.0833 14.9583 32.7917 14.9583 33.625C14.9583 34.4583 14.6667 35.1667 14.0833 35.75C13.5 36.3333 12.7917 36.625 11.9583 36.625ZM28.625 36.625C27.7917 36.625 27.0833 36.3333 26.5 35.75C25.9167 35.1667 25.625 34.4583 25.625 33.625C25.625 32.7917 25.9167 32.0833 26.5 31.5C27.0833 30.9167 27.7917 30.625 28.625 30.625C29.4583 30.625 30.1667 30.9167 30.75 31.5C31.3333 32.0833 31.625 32.7917 31.625 33.625C31.625 34.4583 31.3333 35.1667 30.75 35.75C30.1667 36.3333 29.4583 36.625 28.625 36.625ZM9.79167 9.12501L14.375 18.625H26.375L31.5833 9.12501H9.79167ZM8.54167 6.62501H33.0833C33.7222 6.62501 34.2083 6.91668 34.5417 7.50001C34.875 8.08334 34.875 8.66668 34.5417 9.25001L28.9167 19.375C28.6111 19.9028 28.2153 20.3264 27.7292 20.6458C27.2431 20.9653 26.7083 21.125 26.125 21.125H13.5L11.1667 25.4583H31.625V27.9583H11.5417C10.375 27.9583 9.53472 27.5695 9.02083 26.7917C8.50694 26.0139 8.51389 25.1389 9.04167 24.1667L11.7083 19.25L5.375 5.83334H2.125V3.33334H7L8.54167 6.62501ZM14.375 18.625H26.375H14.375Z" fill="#7E7E7E"/>
</svg>
