<svg xmlns="http://www.w3.org/2000/svg" viewBox="0 0 121.5 37.91"><defs><style>.cls-1{fill:#6cd11c;}.cls-2,.cls-3{fill:#fff;}.cls-3{font-size:16px;font-family:MicrosoftSansSerif, Microsoft Sans Serif;}</style></defs><g id="Layer_2" data-name="Layer 2"><g id="Layer_1-2" data-name="Layer 1"><g id="Starr_Logo" data-name="Starr Logo"><path class="cls-1" d="M23.5,11.13,13.51,0l-.09,10.92-.1,10.92,2.57,0h.76v-2l-.76,0h0L16,6.4l6.16,6.86L28.3,20,22.57,20h-1v2l1,0h.59l10.34.08Z"/><path class="cls-2" d="M10.34,16H0L10.09,26.87l10.09,11V16.07Zm7.32,8.78v6.73l-6.22-6.81L5.22,18h6.37l6.07,0Z"/><polygon class="cls-1" points="21.57 19.94 21.57 21.95 16.65 21.89 16.65 19.88 21.57 19.94"/></g><text class="cls-3" transform="translate(45.42 23.86)">Starr Light</text></g></g></svg>